# xmcd
#
# Track frame offsets: 
#        150
#        22523
#        39700
#        52573
#        65768
#        80190
#        85593
#        88698
#        96685
#        110938
#        115873
#        128438
#        152413
#        173733
#        200890
#
# Disc length: 2961 seconds
#
# Revision: 0
# Processed by: cddbd v1.5.2PL0 Copyright (c) Steve Scherf et al.
# Submitted via: ExactAudioCopy v0.95b3
#
DISCID=c00b8f0f
DTITLE=Chicago  - Beacon Theatre NYC, NY 4-13-75 (1975)  FLAC
DYEAR=1900
DGENRE=
TTITLE0=Call On Me
TTITLE1=Saturday In The Park
TTITLE2=Beginnings
TTITLE3=Ballet For A Girl In Buchannon
TTITLE4=Make Me Smile
TTITLE5=So Much To Say, So Much To Give
TTITLE6=Anxiety's Moment
TTITLE7=West Virginia Fantasies
TTITLE8=Colour My World
TTITLE9=To Be Free
TTITLE10=Now More Than Ever
TTITLE11=Just You 'N' Me
TTITLE12=(I've Been) Searching So Long
TTITLE13=25 Or 6 To 4
TTITLE14=Feelin' Stronger Every Day
EXTD=
EXTT0=
EXTT1=
EXTT2=
EXTT3=
EXTT4=
EXTT5=
EXTT6=
EXTT7=
EXTT8=
EXTT9=
EXTT10=
EXTT11=
EXTT12=
EXTT13=
EXTT14=
PLAYORDER=
